<svg width="103" height="30" viewBox="0 0 103 30" fill="none" xmlns="http://www.w3.org/2000/svg">
<path d="M99.7459 27.7084C100.024 28.0138 100.394 28.1724 100.858 28.1724C101.309 28.1724 101.68 28.0314 101.975 27.7495C102.271 27.4675 102.415 27.1092 102.415 26.6804C102.415 26.3397 102.34 26.0518 102.201 25.8345C102.056 25.6113 101.83 25.435 101.529 25.2999C101.454 25.2647 101.304 25.2118 101.072 25.1472C100.846 25.0767 100.672 25.0062 100.551 24.9298C100.423 24.8476 100.325 24.7595 100.273 24.6537C100.215 24.5539 100.186 24.4305 100.186 24.2778C100.186 24.0663 100.255 23.896 100.389 23.7491C100.528 23.6081 100.696 23.5376 100.904 23.5376C101.13 23.5376 101.309 23.6023 101.443 23.7315C101.576 23.8607 101.651 24.0487 101.663 24.2837H102.334C102.317 23.849 102.184 23.5083 101.94 23.2674C101.692 23.0266 101.361 22.9032 100.945 22.9032C100.551 22.9032 100.215 23.0383 99.937 23.3144C99.6591 23.5905 99.5201 23.9195 99.5201 24.313C99.5201 24.6596 99.607 24.9357 99.7691 25.1413C99.937 25.3469 100.29 25.5466 100.835 25.7464C101.17 25.8756 101.408 26.0107 101.535 26.1576C101.663 26.3044 101.726 26.4983 101.726 26.7332C101.726 26.9741 101.645 27.1738 101.483 27.3324C101.321 27.491 101.112 27.5674 100.869 27.5674C100.614 27.5674 100.394 27.4675 100.221 27.2619C100.047 27.0563 99.9602 26.7979 99.9602 26.4865V26.4689H99.3174C99.3232 26.98 99.468 27.397 99.7459 27.7084ZM93.8339 25.4292L95.9127 28.0432H96.7059L94.5519 25.3528L96.3296 23.0266H95.6116L93.8455 25.3528V21.3994H93.2143V28.0373H93.8455V25.4292H93.8339ZM88.9005 25.0121C88.9005 24.548 88.9873 24.2191 89.1552 24.0135C89.329 23.8079 89.6069 23.6845 90.0064 23.6493L90.0006 22.9502C89.7574 22.9561 89.5432 23.009 89.3637 23.1147C89.1784 23.2204 89.0105 23.379 88.8599 23.6023V23.0266H88.2693V28.0373H88.9063V25.0121H88.9005ZM80.5738 27.4029C81.066 27.9198 81.6624 28.1783 82.3747 28.1783C83.0695 28.1783 83.6659 27.914 84.1523 27.3853C84.6445 26.8566 84.8877 26.2163 84.8877 25.4703C84.8877 24.7595 84.6387 24.1486 84.135 23.6375C83.637 23.1206 83.029 22.868 82.3225 22.868C81.6509 22.868 81.066 23.1264 80.5738 23.6493C80.0817 24.1721 79.8327 24.8006 79.8327 25.5349C79.8385 26.2633 80.0817 26.886 80.5738 27.4029ZM81.0313 24.0722C81.3903 23.6786 81.8188 23.4848 82.3168 23.4848C82.8726 23.4848 83.3301 23.6786 83.6891 24.0546C84.0481 24.4364 84.2276 24.924 84.2276 25.5173C84.2276 26.0988 84.0481 26.5864 83.6949 26.98C83.3359 27.3735 82.8958 27.5674 82.3747 27.5674C81.8419 27.5674 81.3961 27.3735 81.0371 26.98C80.6781 26.5923 80.4986 26.1047 80.4986 25.529C80.4986 24.9475 80.6781 24.4658 81.0313 24.0722ZM72.9652 21.3994L71.6566 26.8448L70.0411 21.3994H69.4099L71.4308 28.0373H71.9577L73.2547 22.6213L74.5518 28.0373H75.0787L77.088 21.3994H76.4626L74.8413 26.8448L73.5385 21.3994H72.9652ZM62.2819 25.1766C62.3572 24.6596 62.5598 24.2543 62.8899 23.9488C63.2199 23.6434 63.6195 23.4965 64.0943 23.4965C64.6039 23.4965 65.0208 23.6375 65.3392 23.9195C65.6577 24.2014 65.872 24.6185 65.9936 25.1766H62.2819ZM66.6884 25.6876C66.6884 24.8593 66.4568 24.1838 65.9936 23.6669C65.5303 23.1499 64.9281 22.8856 64.1927 22.8856C63.44 22.8856 62.8262 23.1323 62.3398 23.6316C61.8592 24.1309 61.616 24.7595 61.616 25.5231C61.616 26.2515 61.865 26.8742 62.3572 27.397C62.8494 27.9198 63.4516 28.1783 64.1638 28.1783C64.7023 28.1783 65.1713 28.0314 65.5824 27.7319C65.9936 27.4323 66.3062 27.0093 66.5321 26.4571H65.8198C65.6577 26.8037 65.4319 27.0798 65.1366 27.2737C64.8413 27.4675 64.5112 27.5674 64.1406 27.5674C63.6195 27.5674 63.191 27.397 62.8378 27.0622C62.4904 26.7274 62.2993 26.2809 62.2587 25.7405H66.6826V25.6876H66.6884ZM54.488 24.0722C54.8528 23.6904 55.2929 23.4965 55.8024 23.4965C56.3004 23.4965 56.7289 23.6962 57.0937 24.1016C57.4585 24.5069 57.6438 24.9945 57.6438 25.5643C57.6438 26.0988 57.4585 26.5629 57.0879 26.9623C56.7173 27.3559 56.2888 27.5556 55.8082 27.5556C55.2929 27.5556 54.8586 27.3559 54.4938 26.9623C54.129 26.5688 53.9495 26.0753 53.9495 25.4938C53.9437 24.9298 54.1232 24.454 54.488 24.0722ZM53.6484 28.4485C53.7642 28.9185 54.019 29.2944 54.4185 29.5764C54.8181 29.8583 55.2929 29.9993 55.8487 29.9993C56.6015 29.9993 57.1921 29.7526 57.6206 29.2592C58.0491 28.7657 58.2634 28.0843 58.2634 27.2091V23.0266H57.6496V23.8431C57.4179 23.52 57.1516 23.285 56.8505 23.1323C56.5494 22.9796 56.1904 22.9032 55.7793 22.9032C55.067 22.9032 54.4764 23.1558 53.9958 23.6551C53.5152 24.1603 53.272 24.783 53.272 25.5173C53.272 26.2692 53.5152 26.8977 54.0016 27.397C54.488 27.9022 55.1018 28.1489 55.8372 28.1489C56.202 28.1489 56.5378 28.0667 56.8389 27.8963C57.14 27.726 57.4122 27.4793 57.6496 27.1444V27.2795C57.6496 27.914 57.4816 28.425 57.1458 28.801C56.81 29.1828 56.3641 29.3708 55.8024 29.3708C55.4492 29.3708 55.1423 29.2885 54.8933 29.1241C54.6443 28.9596 54.4706 28.7364 54.378 28.4426H53.6484V28.4485ZM48.4717 23.1441C48.1533 22.9913 47.8059 22.915 47.4179 22.915C46.6999 22.915 46.1035 23.1676 45.6229 23.6727C45.1423 24.1721 44.9049 24.7947 44.9049 25.529C44.9049 26.2692 45.1481 26.8977 45.6287 27.4088C46.1151 27.9198 46.7057 28.1724 47.4121 28.1724C47.7769 28.1724 48.1243 28.0961 48.4486 27.9375C48.7729 27.7789 49.045 27.5615 49.265 27.2854V28.0432H49.902V21.4053H49.265V22.7035V23.8196C49.0566 23.52 48.7844 23.2968 48.4717 23.1441ZM48.7323 26.9741C48.3617 27.3735 47.9332 27.5733 47.4526 27.5733C46.9257 27.5733 46.4798 27.3735 46.1093 26.9741C45.7387 26.5746 45.5534 26.0812 45.5534 25.4996C45.5534 24.9416 45.7387 24.4716 46.1035 24.0898C46.4683 23.708 46.9141 23.5141 47.4295 23.5141C47.9275 23.5141 48.3617 23.7139 48.7323 24.1192C49.1029 24.5245 49.2882 25.0121 49.2882 25.5819C49.294 26.1106 49.1087 26.5746 48.7323 26.9741ZM37.3889 25.1766C37.4642 24.6596 37.6668 24.2543 37.9969 23.9488C38.3269 23.6434 38.7265 23.4965 39.2013 23.4965C39.7108 23.4965 40.1278 23.6375 40.4462 23.9195C40.7647 24.2014 40.9789 24.6185 41.1005 25.1766H37.3889ZM41.7896 25.6876C41.7896 24.8593 41.558 24.1838 41.0948 23.6669C40.6315 23.1499 40.0293 22.8856 39.2939 22.8856C38.5412 22.8856 37.9274 23.1323 37.441 23.6316C36.9604 24.1309 36.7172 24.7595 36.7172 25.5231C36.7172 26.2515 36.9662 26.8742 37.4584 27.397C37.9506 27.9198 38.5528 28.1783 39.265 28.1783C39.8035 28.1783 40.2725 28.0314 40.6836 27.7319C41.089 27.4323 41.4074 27.0093 41.6333 26.4571H40.921C40.7589 26.8037 40.5331 27.0798 40.2378 27.2737C39.9425 27.4675 39.6124 27.5674 39.2418 27.5674C38.7207 27.5674 38.2864 27.397 37.939 27.0622C37.5915 26.7274 37.4005 26.2809 37.3599 25.7405H41.7838V25.6876H41.7896ZM33.3356 21.3994H32.7044V28.0373H33.3356V21.3994ZM26.6245 23.0266H26.1728L25.0495 26.7802L23.8509 23.0266H23.1966L24.8468 28.0373H25.258L26.3871 24.2191L27.5336 28.0373H27.9447L29.595 23.0266H28.9291L27.7478 26.7802L26.6245 23.0266ZM16.0222 27.4029C16.5144 27.9198 17.1108 28.1783 17.8231 28.1783C18.5179 28.1783 19.1143 27.914 19.6007 27.3853C20.0871 26.8566 20.3361 26.2163 20.3361 25.4703C20.3361 24.7595 20.0871 24.1486 19.5833 23.6375C19.0854 23.1206 18.4774 22.868 17.7709 22.868C17.0993 22.868 16.5144 23.1264 16.0222 23.6493C15.5301 24.1721 15.2811 24.8006 15.2811 25.5349C15.2869 26.2633 15.5358 26.886 16.0222 27.4029ZM16.4855 24.0722C16.8445 23.6786 17.273 23.4848 17.7709 23.4848C18.3268 23.4848 18.7843 23.6786 19.1433 24.0546C19.5023 24.4364 19.6818 24.924 19.6818 25.5173C19.6818 26.0988 19.5023 26.5864 19.1491 26.98C18.7958 27.3735 18.35 27.5674 17.8289 27.5674C17.2961 27.5674 16.8503 27.3735 16.4913 26.98C16.1323 26.5923 15.9528 26.1047 15.9528 25.529C15.947 24.9475 16.1265 24.4658 16.4855 24.0722ZM7.8288 28.0373H8.43679V25.5936C8.43679 25.1589 8.45416 24.8535 8.48311 24.6772C8.51207 24.501 8.56997 24.3483 8.64525 24.2073C8.76684 23.99 8.94056 23.8196 9.1548 23.7021C9.36905 23.5846 9.61804 23.5259 9.90756 23.5259C10.394 23.5259 10.7472 23.661 10.9672 23.9253C11.1872 24.1956 11.2973 24.6244 11.2973 25.2177V28.0256H11.9168V25.4057C11.9168 24.9357 11.8937 24.5774 11.8416 24.3365C11.7952 24.0957 11.7142 23.8842 11.5984 23.708C11.4362 23.4554 11.2104 23.2557 10.9325 23.1206C10.6487 22.9855 10.3303 22.915 9.97125 22.915C9.64699 22.915 9.35168 22.9678 9.10269 23.0795C8.84791 23.1911 8.62787 23.3555 8.431 23.5846V23.0207H7.82301V28.0373H7.8288ZM1.73727 25.1002L3.93763 28.0432H4.71934L2.1426 24.6126L4.75987 21.3994H4.00712L1.00768 25.0884V21.3994H0.376526V28.0373H1.00768V25.9872L1.73727 25.1002Z" fill="#AFB1B4"/>
<path fill-rule="evenodd" clip-rule="evenodd" d="M3.48706 17.6752H0.539734V0.158203H3.57391L13.5682 13.4164L13.4292 0.158203H16.336V17.6752H13.5103L3.29018 4.02346L3.48706 17.6752Z" fill="#F68A33"/>
<path fill-rule="evenodd" clip-rule="evenodd" d="M30.672 7.40117C30.3072 6.0266 29.6761 4.95748 28.7728 4.21145C27.8695 3.45955 26.7982 3.07772 25.5417 3.07772C24.2505 3.07772 23.1387 3.46542 22.1891 4.23495C21.2452 5.01035 20.5909 6.06772 20.2377 7.40117H30.672ZM20.1393 10.0916C20.3882 11.4838 21.002 12.6116 21.9922 13.4752C22.9766 14.3387 24.1462 14.7675 25.507 14.7675C26.474 14.7675 27.3599 14.5325 28.159 14.0567C28.9523 13.5868 29.5892 12.9112 30.064 12.0418H33.3762C32.6234 13.8864 31.5695 15.302 30.2204 16.283C28.8712 17.2582 27.2962 17.7516 25.507 17.7516C24.291 17.7516 23.1966 17.5343 22.1891 17.0996C21.1931 16.6649 20.2898 16.0128 19.4734 15.1434C18.7148 14.3269 18.1126 13.3753 17.6841 12.2886C17.2498 11.2018 17.0414 10.0975 17.0414 8.96373C17.0414 7.78887 17.2383 6.69626 17.632 5.67414C18.0258 4.6579 18.599 3.72389 19.3633 2.88975C20.174 1.97924 21.0947 1.29782 22.1138 0.839632C23.1329 0.38144 24.2447 0.152344 25.4549 0.152344C26.8909 0.152344 28.2227 0.493051 29.4618 1.17446C30.6952 1.85588 31.7085 2.80751 32.5134 4.02935C32.9882 4.78713 33.3414 5.6154 33.5672 6.52004C33.7931 7.42467 33.9031 8.45854 33.9031 9.61577V10.0857H20.1393V10.0916Z" fill="#F68A33"/>
<path fill-rule="evenodd" clip-rule="evenodd" d="M83.8402 7.40117C83.4754 6.0266 82.8385 4.96336 81.941 4.21145C81.0377 3.45955 79.9607 3.07772 78.7099 3.07772C77.4245 3.07772 76.3069 3.46542 75.3573 4.23495C74.4134 5.01035 73.7591 6.06772 73.4059 7.40117H83.8402ZM73.3075 10.0916C73.5565 11.4838 74.176 12.6116 75.1604 13.4752C76.1448 14.3387 77.3144 14.7675 78.6752 14.7675C79.6422 14.7675 80.5281 14.5325 81.3272 14.0567C82.1205 13.5868 82.7574 12.9112 83.2323 12.0418H86.5444C85.7974 13.8864 84.7436 15.302 83.3944 16.283C82.0394 17.2582 80.4702 17.7516 78.681 17.7516C77.4708 17.7516 76.3706 17.5343 75.3631 17.0996C74.3671 16.6649 73.4638 16.0128 72.6474 15.1434C71.8888 14.3269 71.2924 13.3753 70.8581 12.2886C70.4296 11.2018 70.2154 10.0975 70.2154 8.96373C70.2154 7.78887 70.4123 6.69626 70.8002 5.67414C71.1882 4.6579 71.7672 3.72389 72.5316 2.88975C73.3422 1.97924 74.2629 1.29782 75.2762 0.839632C76.2953 0.38144 77.4129 0.152344 78.6173 0.152344C80.0533 0.152344 81.3851 0.493051 82.6185 1.17446C83.8518 1.85588 84.8651 2.80751 85.67 4.02935C86.1448 4.78713 86.4923 5.6154 86.7239 6.52004C86.9497 7.42467 87.0655 8.45854 87.0655 9.61577V10.0857H73.3075V10.0916Z" fill="#F68A33"/>
<path fill-rule="evenodd" clip-rule="evenodd" d="M91.1819 17.6752H88.1419V0.434293H91.0661V2.39629C91.703 1.62089 92.3979 1.05109 93.1622 0.698635C93.9265 0.340305 94.8009 0.158203 95.7795 0.158203C97.9914 0.158203 99.6938 0.821994 100.881 2.14958C102.062 3.47716 102.653 5.38042 102.653 7.85935V17.6811H99.5954V8.52902C99.5954 6.69625 99.2653 5.3393 98.5994 4.45816C97.9335 3.57702 96.897 3.13645 95.5015 3.13645C93.9844 3.13645 92.8901 3.65338 92.2068 4.69313C91.5293 5.73875 91.1819 7.44815 91.1819 9.84485V17.6752V17.6752Z" fill="#F68A33"/>
<path d="M32.6005 0.146484H35.1367H35.2583L35.293 0.269844L38.8599 12.9347L42.0562 0.269844L42.091 0.146484H42.2184H44.0771H44.2045L44.2334 0.269844L47.4239 12.9347L50.9793 0.269844L51.014 0.146484H51.1356H53.6718H53.8918L53.8224 0.357958L48.6341 17.5578L48.5994 17.6694H48.4836H46.2253H46.0979L46.069 17.546L43.1332 5.35695L40.1801 17.546L40.1454 17.6694H40.018H37.8003H37.6845L37.6497 17.5578L32.4441 0.357958L32.3804 0.146484H32.6005Z" fill="#F68A33"/>
<path d="M59.1665 8.78201H69.5371H69.705L69.6992 8.95236V8.96411C69.6819 9.34007 69.6529 9.70427 69.6066 10.0685C69.5603 10.4268 69.5024 10.7734 69.4213 11.1141C69.0391 12.8587 68.2632 14.3332 67.1051 15.5433C66.8793 15.7782 66.6477 15.9956 66.4045 16.2012C66.1613 16.4068 65.9123 16.5948 65.6517 16.7592C64.3142 17.6345 62.7623 18.0751 60.9847 18.0751C60.3477 18.0751 59.7281 18.0105 59.1433 17.8871L58.8538 17.8225C58.3674 17.6991 57.8984 17.5347 57.4409 17.3232C56.9024 17.0765 56.3871 16.7593 55.9007 16.3892C55.4143 16.0191 54.9568 15.5844 54.5283 15.091C54.4299 14.9852 54.3373 14.8677 54.233 14.7385C54.1346 14.6151 54.0419 14.4977 53.9551 14.3743C53.5034 13.7399 53.1386 13.0408 52.8723 12.2831C52.8202 12.1362 52.7681 11.9894 52.7275 11.8425C52.6812 11.6898 52.6407 11.537 52.6001 11.3902C52.409 10.6089 52.3106 9.78651 52.3106 8.93474C52.3106 8.32382 52.3685 7.73052 52.4785 7.15484C52.5885 6.57917 52.7623 6.01524 52.9881 5.46893C53.2139 4.92263 53.4976 4.40569 53.8277 3.91225C54.1578 3.41882 54.5457 2.95475 54.98 2.52006C55.3911 2.09711 55.8312 1.72703 56.2944 1.4157C56.7577 1.09849 57.2498 0.834144 57.7594 0.628545C58.2747 0.417072 58.8133 0.264341 59.3807 0.158605C59.9482 0.0528683 60.5446 0 61.17 0C62.0327 0 62.8376 0.0998623 63.5961 0.311336C64.3547 0.516934 65.0611 0.82827 65.7096 1.23947H65.7154C65.9007 1.35695 66.0744 1.48031 66.2424 1.60955C66.4161 1.73878 66.5782 1.87976 66.7345 2.02074C67.5452 2.75503 68.1879 3.67728 68.6685 4.7699L68.7728 4.99899H68.5238H65.5359H65.4549L65.4085 4.93437C65.1364 4.58192 64.8411 4.27058 64.5226 4.00624C64.2041 3.7419 63.8625 3.51868 63.4861 3.34245L63.1734 3.20734L62.8434 3.08986C62.2701 2.90188 61.6564 2.81377 60.9905 2.81377C60.6083 2.81377 60.2319 2.84901 59.8671 2.92538C59.5023 3.00174 59.1491 3.11336 58.7959 3.26021L58.5122 3.38945L58.2342 3.5363C57.7652 3.80064 57.3367 4.14135 56.9545 4.5408L56.7287 4.79339L56.5145 5.05773C56.1612 5.5218 55.8717 6.03286 55.6459 6.59091L55.5243 6.91987L55.4201 7.24883C55.2579 7.81276 55.1769 8.38844 55.1769 8.96999C55.1769 9.40468 55.2116 9.82763 55.2811 10.2388L55.3216 10.4386C55.3911 10.7793 55.4838 11.1082 55.6054 11.4313L55.7327 11.7485L55.8775 12.054C56.1265 12.565 56.445 13.0232 56.8271 13.4227L57.0645 13.6694L57.3135 13.8926C57.7478 14.2686 58.2342 14.574 58.7553 14.8031C59.1201 14.9676 59.4907 15.091 59.8671 15.1732C60.2377 15.2554 60.6141 15.2966 60.9962 15.2966C61.6158 15.2966 62.2064 15.2143 62.7507 15.044C63.295 14.8736 63.8046 14.6269 64.2794 14.2862C64.4126 14.1922 64.54 14.0923 64.6674 13.9866C64.8005 13.875 64.9221 13.7634 65.038 13.6459C65.6054 13.082 66.0976 12.3712 66.5203 11.5194H59.178H59.0159V11.3549V8.95236V8.78789H59.1665V8.78201Z" fill="#F68A33"/>
<path d="M103 19.6611H0V19.996H103V19.6611Z" fill="#AFB1B4"/>
<path d="M99.7459 27.7084C100.024 28.0138 100.394 28.1724 100.858 28.1724C101.309 28.1724 101.68 28.0314 101.975 27.7495C102.271 27.4675 102.415 27.1092 102.415 26.6804C102.415 26.3397 102.34 26.0518 102.201 25.8345C102.056 25.6113 101.83 25.435 101.529 25.2999C101.454 25.2647 101.304 25.2118 101.072 25.1472C100.846 25.0767 100.672 25.0062 100.551 24.9298C100.423 24.8476 100.325 24.7595 100.273 24.6537C100.215 24.5539 100.186 24.4305 100.186 24.2778C100.186 24.0663 100.255 23.896 100.389 23.7491C100.528 23.6081 100.696 23.5376 100.904 23.5376C101.13 23.5376 101.309 23.6023 101.443 23.7315C101.576 23.8607 101.651 24.0487 101.663 24.2837H102.334C102.317 23.849 102.184 23.5083 101.94 23.2674C101.692 23.0266 101.361 22.9032 100.945 22.9032C100.551 22.9032 100.215 23.0383 99.937 23.3144C99.6591 23.5905 99.5201 23.9195 99.5201 24.313C99.5201 24.6596 99.607 24.9357 99.7691 25.1413C99.937 25.3469 100.29 25.5466 100.835 25.7464C101.17 25.8756 101.408 26.0107 101.535 26.1576C101.663 26.3044 101.726 26.4983 101.726 26.7332C101.726 26.9741 101.645 27.1738 101.483 27.3324C101.321 27.491 101.112 27.5674 100.869 27.5674C100.614 27.5674 100.394 27.4675 100.221 27.2619C100.047 27.0563 99.9602 26.7979 99.9602 26.4865V26.4689H99.3174C99.3232 26.98 99.468 27.397 99.7459 27.7084ZM93.8339 25.4292L95.9127 28.0432H96.7059L94.5519 25.3528L96.3296 23.0266H95.6116L93.8455 25.3528V21.3994H93.2143V28.0373H93.8455V25.4292H93.8339ZM88.9005 25.0121C88.9005 24.548 88.9873 24.2191 89.1552 24.0135C89.329 23.8079 89.6069 23.6845 90.0064 23.6493L90.0006 22.9502C89.7574 22.9561 89.5432 23.009 89.3637 23.1147C89.1784 23.2204 89.0105 23.379 88.8599 23.6023V23.0266H88.2693V28.0373H88.9063V25.0121H88.9005ZM80.5738 27.4029C81.066 27.9198 81.6624 28.1783 82.3747 28.1783C83.0695 28.1783 83.6659 27.914 84.1523 27.3853C84.6445 26.8566 84.8877 26.2163 84.8877 25.4703C84.8877 24.7595 84.6387 24.1486 84.135 23.6375C83.637 23.1206 83.029 22.868 82.3225 22.868C81.6509 22.868 81.066 23.1264 80.5738 23.6493C80.0817 24.1721 79.8327 24.8006 79.8327 25.5349C79.8385 26.2633 80.0817 26.886 80.5738 27.4029ZM81.0313 24.0722C81.3903 23.6786 81.8188 23.4848 82.3168 23.4848C82.8726 23.4848 83.3301 23.6786 83.6891 24.0546C84.0481 24.4364 84.2276 24.924 84.2276 25.5173C84.2276 26.0988 84.0481 26.5864 83.6949 26.98C83.3359 27.3735 82.8958 27.5674 82.3747 27.5674C81.8419 27.5674 81.3961 27.3735 81.0371 26.98C80.6781 26.5923 80.4986 26.1047 80.4986 25.529C80.4986 24.9475 80.6781 24.4658 81.0313 24.0722ZM72.9652 21.3994L71.6566 26.8448L70.0411 21.3994H69.4099L71.4308 28.0373H71.9577L73.2547 22.6213L74.5518 28.0373H75.0787L77.088 21.3994H76.4626L74.8413 26.8448L73.5385 21.3994H72.9652ZM62.2819 25.1766C62.3572 24.6596 62.5598 24.2543 62.8899 23.9488C63.2199 23.6434 63.6195 23.4965 64.0943 23.4965C64.6039 23.4965 65.0208 23.6375 65.3392 23.9195C65.6577 24.2014 65.872 24.6185 65.9936 25.1766H62.2819ZM66.6884 25.6876C66.6884 24.8593 66.4568 24.1838 65.9936 23.6669C65.5303 23.1499 64.9281 22.8856 64.1927 22.8856C63.44 22.8856 62.8262 23.1323 62.3398 23.6316C61.8592 24.1309 61.616 24.7595 61.616 25.5231C61.616 26.2515 61.865 26.8742 62.3572 27.397C62.8494 27.9198 63.4516 28.1783 64.1638 28.1783C64.7023 28.1783 65.1713 28.0314 65.5824 27.7319C65.9936 27.4323 66.3062 27.0093 66.5321 26.4571H65.8198C65.6577 26.8037 65.4319 27.0798 65.1366 27.2737C64.8413 27.4675 64.5112 27.5674 64.1406 27.5674C63.6195 27.5674 63.191 27.397 62.8378 27.0622C62.4904 26.7274 62.2993 26.2809 62.2587 25.7405H66.6826V25.6876H66.6884ZM54.488 24.0722C54.8528 23.6904 55.2929 23.4965 55.8024 23.4965C56.3004 23.4965 56.7289 23.6962 57.0937 24.1016C57.4585 24.5069 57.6438 24.9945 57.6438 25.5643C57.6438 26.0988 57.4585 26.5629 57.0879 26.9623C56.7173 27.3559 56.2888 27.5556 55.8082 27.5556C55.2929 27.5556 54.8586 27.3559 54.4938 26.9623C54.129 26.5688 53.9495 26.0753 53.9495 25.4938C53.9437 24.9298 54.1232 24.454 54.488 24.0722ZM53.6484 28.4485C53.7642 28.9185 54.019 29.2944 54.4185 29.5764C54.8181 29.8583 55.2929 29.9993 55.8487 29.9993C56.6015 29.9993 57.1921 29.7526 57.6206 29.2592C58.0491 28.7657 58.2634 28.0843 58.2634 27.2091V23.0266H57.6496V23.8431C57.4179 23.52 57.1516 23.285 56.8505 23.1323C56.5494 22.9796 56.1904 22.9032 55.7793 22.9032C55.067 22.9032 54.4764 23.1558 53.9958 23.6551C53.5152 24.1603 53.272 24.783 53.272 25.5173C53.272 26.2692 53.5152 26.8977 54.0016 27.397C54.488 27.9022 55.1018 28.1489 55.8372 28.1489C56.202 28.1489 56.5378 28.0667 56.8389 27.8963C57.14 27.726 57.4122 27.4793 57.6496 27.1444V27.2795C57.6496 27.914 57.4816 28.425 57.1458 28.801C56.81 29.1828 56.3641 29.3708 55.8024 29.3708C55.4492 29.3708 55.1423 29.2885 54.8933 29.1241C54.6443 28.9596 54.4706 28.7364 54.378 28.4426H53.6484V28.4485ZM48.4717 23.1441C48.1533 22.9913 47.8059 22.915 47.4179 22.915C46.6999 22.915 46.1035 23.1676 45.6229 23.6727C45.1423 24.1721 44.9049 24.7947 44.9049 25.529C44.9049 26.2692 45.1481 26.8977 45.6287 27.4088C46.1151 27.9198 46.7057 28.1724 47.4121 28.1724C47.7769 28.1724 48.1243 28.0961 48.4486 27.9375C48.7729 27.7789 49.045 27.5615 49.265 27.2854V28.0432H49.902V21.4053H49.265V22.7035V23.8196C49.0566 23.52 48.7844 23.2968 48.4717 23.1441ZM48.7323 26.9741C48.3617 27.3735 47.9332 27.5733 47.4526 27.5733C46.9257 27.5733 46.4798 27.3735 46.1093 26.9741C45.7387 26.5746 45.5534 26.0812 45.5534 25.4996C45.5534 24.9416 45.7387 24.4716 46.1035 24.0898C46.4683 23.708 46.9141 23.5141 47.4295 23.5141C47.9275 23.5141 48.3617 23.7139 48.7323 24.1192C49.1029 24.5245 49.2882 25.0121 49.2882 25.5819C49.294 26.1106 49.1087 26.5746 48.7323 26.9741ZM37.3889 25.1766C37.4642 24.6596 37.6668 24.2543 37.9969 23.9488C38.3269 23.6434 38.7265 23.4965 39.2013 23.4965C39.7108 23.4965 40.1278 23.6375 40.4462 23.9195C40.7647 24.2014 40.9789 24.6185 41.1005 25.1766H37.3889ZM41.7896 25.6876C41.7896 24.8593 41.558 24.1838 41.0948 23.6669C40.6315 23.1499 40.0293 22.8856 39.2939 22.8856C38.5412 22.8856 37.9274 23.1323 37.441 23.6316C36.9604 24.1309 36.7172 24.7595 36.7172 25.5231C36.7172 26.2515 36.9662 26.8742 37.4584 27.397C37.9506 27.9198 38.5528 28.1783 39.265 28.1783C39.8035 28.1783 40.2725 28.0314 40.6836 27.7319C41.089 27.4323 41.4074 27.0093 41.6333 26.4571H40.921C40.7589 26.8037 40.5331 27.0798 40.2378 27.2737C39.9425 27.4675 39.6124 27.5674 39.2418 27.5674C38.7207 27.5674 38.2864 27.397 37.939 27.0622C37.5915 26.7274 37.4005 26.2809 37.3599 25.7405H41.7838V25.6876H41.7896ZM33.3356 21.3994H32.7044V28.0373H33.3356V21.3994ZM26.6245 23.0266H26.1728L25.0495 26.7802L23.8509 23.0266H23.1966L24.8468 28.0373H25.258L26.3871 24.2191L27.5336 28.0373H27.9447L29.595 23.0266H28.9291L27.7478 26.7802L26.6245 23.0266ZM16.0222 27.4029C16.5144 27.9198 17.1108 28.1783 17.8231 28.1783C18.5179 28.1783 19.1143 27.914 19.6007 27.3853C20.0871 26.8566 20.3361 26.2163 20.3361 25.4703C20.3361 24.7595 20.0871 24.1486 19.5833 23.6375C19.0854 23.1206 18.4774 22.868 17.7709 22.868C17.0993 22.868 16.5144 23.1264 16.0222 23.6493C15.5301 24.1721 15.2811 24.8006 15.2811 25.5349C15.2869 26.2633 15.5358 26.886 16.0222 27.4029ZM16.4855 24.0722C16.8445 23.6786 17.273 23.4848 17.7709 23.4848C18.3268 23.4848 18.7843 23.6786 19.1433 24.0546C19.5023 24.4364 19.6818 24.924 19.6818 25.5173C19.6818 26.0988 19.5023 26.5864 19.1491 26.98C18.7958 27.3735 18.35 27.5674 17.8289 27.5674C17.2961 27.5674 16.8503 27.3735 16.4913 26.98C16.1323 26.5923 15.9528 26.1047 15.9528 25.529C15.947 24.9475 16.1265 24.4658 16.4855 24.0722ZM7.8288 28.0373H8.43679V25.5936C8.43679 25.1589 8.45416 24.8535 8.48311 24.6772C8.51207 24.501 8.56997 24.3483 8.64525 24.2073C8.76684 23.99 8.94056 23.8196 9.1548 23.7021C9.36905 23.5846 9.61804 23.5259 9.90756 23.5259C10.394 23.5259 10.7472 23.661 10.9672 23.9253C11.1872 24.1956 11.2973 24.6244 11.2973 25.2177V28.0256H11.9168V25.4057C11.9168 24.9357 11.8937 24.5774 11.8416 24.3365C11.7952 24.0957 11.7142 23.8842 11.5984 23.708C11.4362 23.4554 11.2104 23.2557 10.9325 23.1206C10.6487 22.9855 10.3303 22.915 9.97125 22.915C9.64699 22.915 9.35168 22.9678 9.10269 23.0795C8.84791 23.1911 8.62787 23.3555 8.431 23.5846V23.0207H7.82301V28.0373H7.8288ZM1.73727 25.1002L3.93763 28.0432H4.71934L2.1426 24.6126L4.75987 21.3994H4.00712L1.00768 25.0884V21.3994H0.376526V28.0373H1.00768V25.9872L1.73727 25.1002Z" fill="#AFB1B4"/>
<path fill-rule="evenodd" clip-rule="evenodd" d="M3.48706 17.6752H0.539734V0.158203H3.57391L13.5682 13.4164L13.4292 0.158203H16.336V17.6752H13.5103L3.29018 4.02346L3.48706 17.6752Z" fill="#F68A33"/>
<path fill-rule="evenodd" clip-rule="evenodd" d="M30.672 7.40117C30.3072 6.0266 29.6761 4.95748 28.7728 4.21145C27.8695 3.45955 26.7982 3.07772 25.5417 3.07772C24.2505 3.07772 23.1387 3.46542 22.1891 4.23495C21.2452 5.01035 20.5909 6.06772 20.2377 7.40117H30.672ZM20.1393 10.0916C20.3882 11.4838 21.002 12.6116 21.9922 13.4752C22.9766 14.3387 24.1462 14.7675 25.507 14.7675C26.474 14.7675 27.3599 14.5325 28.159 14.0567C28.9523 13.5868 29.5892 12.9112 30.064 12.0418H33.3762C32.6234 13.8864 31.5695 15.302 30.2204 16.283C28.8712 17.2582 27.2962 17.7516 25.507 17.7516C24.291 17.7516 23.1966 17.5343 22.1891 17.0996C21.1931 16.6649 20.2898 16.0128 19.4734 15.1434C18.7148 14.3269 18.1126 13.3753 17.6841 12.2886C17.2498 11.2018 17.0414 10.0975 17.0414 8.96373C17.0414 7.78887 17.2383 6.69626 17.632 5.67414C18.0258 4.6579 18.599 3.72389 19.3633 2.88975C20.174 1.97924 21.0947 1.29782 22.1138 0.839632C23.1329 0.38144 24.2447 0.152344 25.4549 0.152344C26.8909 0.152344 28.2227 0.493051 29.4618 1.17446C30.6952 1.85588 31.7085 2.80751 32.5134 4.02935C32.9882 4.78713 33.3414 5.6154 33.5672 6.52004C33.7931 7.42467 33.9031 8.45854 33.9031 9.61577V10.0857H20.1393V10.0916Z" fill="#F68A33"/>
<path fill-rule="evenodd" clip-rule="evenodd" d="M83.8402 7.40117C83.4754 6.0266 82.8385 4.96336 81.941 4.21145C81.0377 3.45955 79.9607 3.07772 78.7099 3.07772C77.4245 3.07772 76.3069 3.46542 75.3573 4.23495C74.4134 5.01035 73.7591 6.06772 73.4059 7.40117H83.8402ZM73.3075 10.0916C73.5565 11.4838 74.176 12.6116 75.1604 13.4752C76.1448 14.3387 77.3144 14.7675 78.6752 14.7675C79.6422 14.7675 80.5281 14.5325 81.3272 14.0567C82.1205 13.5868 82.7574 12.9112 83.2323 12.0418H86.5444C85.7974 13.8864 84.7436 15.302 83.3944 16.283C82.0394 17.2582 80.4702 17.7516 78.681 17.7516C77.4708 17.7516 76.3706 17.5343 75.3631 17.0996C74.3671 16.6649 73.4638 16.0128 72.6474 15.1434C71.8888 14.3269 71.2924 13.3753 70.8581 12.2886C70.4296 11.2018 70.2154 10.0975 70.2154 8.96373C70.2154 7.78887 70.4123 6.69626 70.8002 5.67414C71.1882 4.6579 71.7672 3.72389 72.5316 2.88975C73.3422 1.97924 74.2629 1.29782 75.2762 0.839632C76.2953 0.38144 77.4129 0.152344 78.6173 0.152344C80.0533 0.152344 81.3851 0.493051 82.6185 1.17446C83.8518 1.85588 84.8651 2.80751 85.67 4.02935C86.1448 4.78713 86.4923 5.6154 86.7239 6.52004C86.9497 7.42467 87.0655 8.45854 87.0655 9.61577V10.0857H73.3075V10.0916Z" fill="#F68A33"/>
<path fill-rule="evenodd" clip-rule="evenodd" d="M91.1819 17.6752H88.1419V0.434293H91.0661V2.39629C91.703 1.62089 92.3979 1.05109 93.1622 0.698635C93.9265 0.340305 94.8009 0.158203 95.7795 0.158203C97.9914 0.158203 99.6938 0.821994 100.881 2.14958C102.062 3.47716 102.653 5.38042 102.653 7.85935V17.6811H99.5954V8.52902C99.5954 6.69625 99.2653 5.3393 98.5994 4.45816C97.9335 3.57702 96.897 3.13645 95.5015 3.13645C93.9844 3.13645 92.8901 3.65338 92.2068 4.69313C91.5293 5.73875 91.1819 7.44815 91.1819 9.84485V17.6752V17.6752Z" fill="#F68A33"/>
<path d="M32.6005 0.146484H35.1367H35.2583L35.293 0.269844L38.8599 12.9347L42.0562 0.269844L42.091 0.146484H42.2184H44.0771H44.2045L44.2334 0.269844L47.4239 12.9347L50.9793 0.269844L51.014 0.146484H51.1356H53.6718H53.8918L53.8224 0.357958L48.6341 17.5578L48.5994 17.6694H48.4836H46.2253H46.0979L46.069 17.546L43.1332 5.35695L40.1801 17.546L40.1454 17.6694H40.018H37.8003H37.6845L37.6497 17.5578L32.4441 0.357958L32.3804 0.146484H32.6005Z" fill="#F68A33"/>
<path d="M59.1665 8.78201H69.5371H69.705L69.6992 8.95236V8.96411C69.6819 9.34007 69.6529 9.70427 69.6066 10.0685C69.5603 10.4268 69.5024 10.7734 69.4213 11.1141C69.0391 12.8587 68.2632 14.3332 67.1051 15.5433C66.8793 15.7782 66.6477 15.9956 66.4045 16.2012C66.1613 16.4068 65.9123 16.5948 65.6517 16.7592C64.3142 17.6345 62.7623 18.0751 60.9847 18.0751C60.3477 18.0751 59.7281 18.0105 59.1433 17.8871L58.8538 17.8225C58.3674 17.6991 57.8984 17.5347 57.4409 17.3232C56.9024 17.0765 56.3871 16.7593 55.9007 16.3892C55.4143 16.0191 54.9568 15.5844 54.5283 15.091C54.4299 14.9852 54.3373 14.8677 54.233 14.7385C54.1346 14.6151 54.0419 14.4977 53.9551 14.3743C53.5034 13.7399 53.1386 13.0408 52.8723 12.2831C52.8202 12.1362 52.7681 11.9894 52.7275 11.8425C52.6812 11.6898 52.6407 11.537 52.6001 11.3902C52.409 10.6089 52.3106 9.78651 52.3106 8.93474C52.3106 8.32382 52.3685 7.73052 52.4785 7.15484C52.5885 6.57917 52.7623 6.01524 52.9881 5.46893C53.2139 4.92263 53.4976 4.40569 53.8277 3.91225C54.1578 3.41882 54.5457 2.95475 54.98 2.52006C55.3911 2.09711 55.8312 1.72703 56.2944 1.4157C56.7577 1.09849 57.2498 0.834144 57.7594 0.628545C58.2747 0.417072 58.8133 0.264341 59.3807 0.158605C59.9482 0.0528683 60.5446 0 61.17 0C62.0327 0 62.8376 0.0998623 63.5961 0.311336C64.3547 0.516934 65.0611 0.82827 65.7096 1.23947H65.7154C65.9007 1.35695 66.0744 1.48031 66.2424 1.60955C66.4161 1.73878 66.5782 1.87976 66.7345 2.02074C67.5452 2.75503 68.1879 3.67728 68.6685 4.7699L68.7728 4.99899H68.5238H65.5359H65.4549L65.4085 4.93437C65.1364 4.58192 64.8411 4.27058 64.5226 4.00624C64.2041 3.7419 63.8625 3.51868 63.4861 3.34245L63.1734 3.20734L62.8434 3.08986C62.2701 2.90188 61.6564 2.81377 60.9905 2.81377C60.6083 2.81377 60.2319 2.84901 59.8671 2.92538C59.5023 3.00174 59.1491 3.11336 58.7959 3.26021L58.5122 3.38945L58.2342 3.5363C57.7652 3.80064 57.3367 4.14135 56.9545 4.5408L56.7287 4.79339L56.5145 5.05773C56.1612 5.5218 55.8717 6.03286 55.6459 6.59091L55.5243 6.91987L55.4201 7.24883C55.2579 7.81276 55.1769 8.38844 55.1769 8.96999C55.1769 9.40468 55.2116 9.82763 55.2811 10.2388L55.3216 10.4386C55.3911 10.7793 55.4838 11.1082 55.6054 11.4313L55.7327 11.7485L55.8775 12.054C56.1265 12.565 56.445 13.0232 56.8271 13.4227L57.0645 13.6694L57.3135 13.8926C57.7478 14.2686 58.2342 14.574 58.7553 14.8031C59.1201 14.9676 59.4907 15.091 59.8671 15.1732C60.2377 15.2554 60.6141 15.2966 60.9962 15.2966C61.6158 15.2966 62.2064 15.2143 62.7507 15.044C63.295 14.8736 63.8046 14.6269 64.2794 14.2862C64.4126 14.1922 64.54 14.0923 64.6674 13.9866C64.8005 13.875 64.9221 13.7634 65.038 13.6459C65.6054 13.082 66.0976 12.3712 66.5203 11.5194H59.178H59.0159V11.3549V8.95236V8.78789H59.1665V8.78201Z" fill="#F68A33"/>
<path d="M103 19.6611H0V19.996H103V19.6611Z" fill="#AFB1B4"/>
</svg>
