<svg width="12" height="14" viewBox="0 0 12 14" fill="none" xmlns="http://www.w3.org/2000/svg">
<path d="M11 13.4H1C0.779086 13.4 0.6 13.2209 0.6 13V1C0.6 0.779086 0.779086 0.6 1 0.6H7.2H11C11.2209 0.6 11.4 0.779086 11.4 1V3.68421V13C11.4 13.2209 11.2209 13.4 11 13.4Z" stroke="#4F5A72" stroke-width="1.2"/>
<path d="M4.55743 8.81252C5.73899 8.37358 8.23004 7.63782 8.83701 7.69394C9.44927 7.75055 9.63659 7.94488 9.63659 8.18948C9.63659 8.2886 9.63659 8.50099 9.25488 8.61429C8.99444 8.69159 7.97951 8.44435 7.48253 8.14703C6.9489 7.82779 6.22157 6.97178 5.96954 6.50456L5.53726 5.78244C5.27789 5.24435 5.21291 4.45143 5.27789 4.21076C5.34287 3.9701 5.74606 3.38948 6.17127 4.06916C6.36566 4.62135 6.14246 5.49359 5.96954 5.78244C5.79663 6.07128 4.95609 7.92285 4.55743 8.81252ZM4.55743 8.81252C4.28845 9.27506 4.50692 8.82189 4.33401 9.16647C4.182 9.4694 3.48386 11.0213 2.64811 10.4408C2.53817 10.3644 2.13407 9.90218 3.00122 9.46385C3.75758 9.08152 4.30767 8.85028 4.55743 8.81252Z" stroke="#4F5A72" stroke-width="0.8"/>
</svg>
