<svg width="13" height="9" viewBox="0 0 13 9" fill="none" xmlns="http://www.w3.org/2000/svg">
<path d="M1.70711 3.79289C1.31658 3.40237 0.683418 3.40237 0.292893 3.79289C-0.0976311 4.18342 -0.0976311 4.81658 0.292893 5.20711L1.70711 3.79289ZM12.2071 1.70711C12.5976 1.31658 12.5976 0.683418 12.2071 0.292893C11.8166 -0.0976311 11.1834 -0.0976311 10.7929 0.292893L12.2071 1.70711ZM4.5 8L3.79289 8.70711C4.18342 9.09763 4.81658 9.09763 5.20711 8.70711L4.5 8ZM0.292893 5.20711L3.79289 8.70711L5.20711 7.29289L1.70711 3.79289L0.292893 5.20711ZM5.20711 8.70711L12.2071 1.70711L10.7929 0.292893L3.79289 7.29289L5.20711 8.70711Z" fill="#6EBF5D"/>
</svg>
